<svg xmlns="http://www.w3.org/2000/svg" width="36" height="29"><path fill-rule="evenodd" fill="#ECE2BA" d="M7.999 0h19.727a8 8 0 0 1 8.001 8v13a8 8 0 0 1-8.001 8H7.999a8 8 0 0 1-8-8V8a8 8 0 0 1 8-8z"/><path fill-rule="evenodd" fill="#654F28" d="M28.899 28.821H6.989c-3.855 0-6.991-3.133-6.991-6.982V7.102C-.002 3.605 2.607.63 6.066.18l.023-.001h23.723l.012.001c3.52.456 6.174 3.432 6.174 6.922v14.737c0 3.849-3.185 6.982-7.099 6.982zm6.752-10.568H33.96l-.007-3.486-9.494-.015v3.239l1.617 1.723h9.575v-1.461zm0 1.838h-9.743l-1.633-1.74-3 1.639 1.517 6.703c.892-.001 5.408-.003 7.202.007 3.885-.922 4.011-5.017 4.011-5.058l.192.004.001-.189 1.453.011v-1.377zm-11.192-5.716l9.493.015-.008-3.512 1.707-.004V9.391l-9.526-.01-1.666 1.806v3.188zm9.869-3.121l.015 6.622h1.308v-6.625l-1.323.003zM1.743 7.656c-.434.015-1.097.018-1.398.018v1.297l9.532-.015 1.592 1.784 2.926-1.516-1.462-6.973c-.505.001-2.291.003-6.071.005-1.395.007-2.541.492-3.407 1.439-1.272 1.391-1.562 3.423-1.528 3.754l.02.2-.204.007zM.345 19.652l9.353.025 1.523-1.684.007-3.277-9.308-.005.008 3.59H.345v1.351zm1.199-1.728l-.015-6.738H.345v6.738h1.199zm.368-7.115l.007 3.525 9.31.004.008-3.287-1.533-1.717-9.359.014v1.461h1.567zm9.542 7.494L9.87 20.055l-9.525-.026v1.387l1.342-.006.001.189.192.002c-.002.164.004 4.023 3.769 5.057.925.026 6.177.017 7.149.014l1.511-6.814-2.855-1.555zM29.789.52H6.1C2.819.952.345 3.78.345 7.102v.195c.257-.001.783-.002 1.2-.012.041-.687.422-2.527 1.625-3.842.941-1.03 2.182-1.556 3.691-1.565l6.229-.004v.188l.187-.038 1.552 7.402-3.209 1.662-.015 6.866 3.14 1.71-1.605 7.237-.187-.041v.189c-.127.001-1.664.004-3.311.004-1.713 0-3.545-.004-4.028-.019l-.044-.007c-3.579-.968-4.014-4.39-4.067-5.239l-1.158.005v.046c0 3.662 2.981 6.641 6.644 6.641h21.91c3.721 0 6.748-2.976 6.751-6.635l-1.273-.009c-.078.852-.621 4.374-4.317 5.236l-.022.005h-.023c-1.965-.011-7.323-.006-7.377-.006v-.189l-.187.041-1.612-7.126 3.236-1.768V11.06l-3.198-1.788 1.722-5.445.366.112-1.631 5.156 2.994 1.673 1.627-1.764 9.696.01V7.605h-1.467l-.192-.188c0-.183-.057-4.48-4.47-5.183h-6.74v-.377l6.786.003c4.209.661 4.734 4.471 4.799 5.368h1.284v-.126c0-3.316-2.519-6.144-5.862-6.582z"/></svg>