<svg xmlns="http://www.w3.org/2000/svg" width="22.5" height="22.5"><path stroke="#ED1B2F" fill="none" d="M10.997.498c5.8 0 10.502 4.702 10.502 10.503 0 5.8-4.702 10.503-10.502 10.503-5.799 0-10.501-4.703-10.501-10.503C.496 5.2 5.198.498 10.997.498z"/><path fill-rule="evenodd" fill="#ED1B2F" d="M14.944 11.562h-3.382v3.382a.555.555 0 0 1-.555.555h-.014a.555.555 0 0 1-.556-.555v-3.382H7.055a.555.555 0 0 1-.555-.555v-.014c0-.307.248-.556.555-.556h3.382V7.055c0-.307.249-.555.556-.555h.014c.306 0 .555.248.555.555v3.382h3.382c.307 0 .556.249.556.556v.014a.556.556 0 0 1-.556.555z"/></svg>