<svg xmlns="http://www.w3.org/2000/svg" version="1" width="1133.858" height="706.89"><path d="M566.963 589.123c64.187-58.154 104.514-142.21 104.514-235.7 0-93.47-40.327-177.503-104.514-235.68-56.476-51.168-131.346-82.31-213.52-82.31-175.596 0-318.01 142.37-318.01 317.99 0 175.64 142.414 318.033 318.01 318.033 82.174 0 157.044-31.164 213.52-82.333" fill="#009cdc"/><path d="M566.963 589.123c64.187-58.154 104.514-142.21 104.514-235.7 0-93.47-40.327-177.503-104.514-235.68" fill="#009cdc"/><path d="M566.963 589.123c64.187-58.154 104.514-142.21 104.514-235.7 0-93.47-40.327-177.503-104.514-235.68" fill="none" stroke="#009cdc" stroke-width="2.268103"/><path d="M780.414 35.434c-82.15 0-157.043 31.14-213.45 82.31-11.523 10.41-22.25 21.683-32.14 33.68h64.21c8.778 10.66 16.898 21.888 24.246 33.637H510.578c-6.736 10.82-12.883 22.07-18.326 33.682h149.332c5.126 10.91 9.64 22.137 13.495 33.704h-176.3c-3.652 10.955-6.737 22.182-9.232 33.66H664.31c4.695 21.705 7.167 44.227 7.167 67.316 0 35.315-5.76 69.29-16.398 101.022h-176.3c3.878 11.544 8.37 22.794 13.472 33.68h149.332c-5.42 11.636-11.545 22.863-18.304 33.705H510.578c7.35 11.748 15.47 22.975 24.246 33.635h64.21c-9.866 11.998-20.617 23.27-32.07 33.658 56.407 51.17 131.3 82.333 213.45 82.333 175.642 0 318.01-142.392 318.01-318.034 0-175.62-142.368-317.988-318.01-317.988" fill="#ed2233"/><path d="M1064.97 530.108h1.157c.408 0 .907.022 1.293-.182.34-.227.522-.635.522-1.02 0-.363-.205-.75-.522-.93-.363-.227-.953-.16-1.36-.16h-1.09v2.292zm0 5.103h-2.11v-9.026h3.79c.793 0 1.632.023 2.312.476.75.476 1.157 1.36 1.157 2.246 0 1.02-.59 1.973-1.566 2.336l1.678 3.97h-2.336l-1.383-3.562h-1.543v3.56zm1.384 3.312c4.31 0 7.825-3.493 7.825-7.802 0-4.31-3.517-7.802-7.826-7.802-4.287 0-7.825 3.493-7.825 7.802 0 4.31 3.537 7.802 7.824 7.802zm-10.275-7.802c0-5.693 4.58-10.274 10.274-10.274 5.693 0 10.252 4.58 10.252 10.274 0 5.648-4.56 10.275-10.252 10.275-5.693 0-10.275-4.627-10.275-10.275" fill="#ed2233"/><path d="M303.818 441.924h-39.964l23.498-123.952-54.163 123.952h-33.433l-6.577-123.272-26.197 123.272h-36.357l30.687-161.24h62.85l.702 99.797 43.548-99.796h66.59l-31.185 161.24M746.053 440.29c-10.842 2.972-19.302 4.265-28.442 4.265-20.254 0-31.3-10.16-31.3-28.805 0-3.674.386-7.62 1.18-11.75l2.382-12.836 1.86-10.388 18.35-100.092h39.373l-5.716 30.098h20.185l-5.42 31.89h-20.277l-10.434 54.706c-.453 2.382-.68 4.174-.68 5.398 0 6.782 4.083 9.73 13.495 9.73 4.513 0 8.006-.408 10.682-1.247l-5.24 29.03M588.918 352.22c0 16.558 9.322 27.966 30.484 36.517 16.217 6.6 18.734 8.528 18.734 14.516 0 8.165-7.144 11.84-22.976 11.84-11.975 0-23.066-1.657-35.88-5.217l-5.535 30.256 1.814.272 7.325 1.36c2.336.432 5.83.795 10.456 1.135 9.527.748 16.876 1.11 22.07 1.11 42.254 0 61.783-13.88 61.783-43.75 0-17.987-8.143-28.557-28.238-36.495-16.784-6.668-18.712-8.12-18.712-14.244 0-7.052 6.646-10.68 19.597-10.68 7.847 0 18.575.724 28.76 1.95l5.715-30.348c-10.366-1.43-26.106-2.586-35.247-2.586-44.772 0-60.286 20.164-60.15 44.364M405.18 383.498c-4.15-.454-5.966-.568-8.846-.568-22.432 0-33.795 6.737-33.795 19.96 0 8.165 5.533 13.382 14.197 13.382 16.15 0 27.762-13.405 28.442-32.774zm26.717 58.426h-32.91l.794-13.586c-10.047 10.728-23.383 15.81-41.55 15.81-21.41 0-36.154-14.585-36.154-35.792 0-31.935 25.584-50.556 69.517-50.556 4.536 0 10.23.363 16.15 1.02 1.224-4.31 1.54-6.19 1.54-8.528 0-8.686-6.894-11.907-25.38-11.907-11.294 0-24.063 1.383-32.886 3.652l-5.49 1.36-3.537.862 5.466-29.486c19.755-5.035 32.774-6.963 47.403-6.963 33.998 0 52.007 13.315 52.007 38.468 0 6.464-.635 11.41-3.243 25.992-3.38 22.818-9.005 46.428-11.727 69.654M542.785 361.066c.227-2.744.318-5.013.318-6.714 0-10.614-6.918-16.92-18.712-16.92-12.61 0-21.592 8.415-25.243 23.52l43.638.114zm19.21 78c-13.562 3.606-26.672 5.353-40.553 5.33-44.25-.023-67.294-20.186-67.294-58.72 0-45.046 29.326-78.16 69.154-78.16 32.593 0 53.39 18.553 53.39 47.653 0 9.66-1.428 19.074-4.853 32.342h-78.68c-.32 2.04-.41 2.95-.41 4.15 0 15.22 11.727 22.93 34.725 22.93 14.13 0 26.923-2.562 41.098-8.3l-6.577 32.774M944.262 366.782c0-13.7-5.557-26.65-21.796-26.65-20.186 0-32.706 23.837-32.706 44.93 0 17.782 8.573 29.713 22.726 29.44 8.573 0 26.854-11.658 30.483-32.07.84-4.74 1.292-10.003 1.292-15.65zm40.19 15.672c-5.896 43.616-36.357 62.985-76.865 62.985-44.772 0-62.872-27.195-62.872-60.446 0-46.496 30.62-77.977 77.932-77.977 41.053 0 62.872 25.924 62.872 59.175 0 8.074-.024 8.64-1.067 16.262" fill="#003873"/><path d="M997.7 421.738h1.178c.43 0 .907.045 1.27-.16.34-.203.545-.634.545-1.042 0-.34-.25-.726-.522-.885-.362-.248-.952-.203-1.337-.203H997.7v2.29zm0 5.126h-2.088v-9.005h3.81c.772 0 1.588 0 2.314.43.726.5 1.157 1.384 1.157 2.268 0 1.02-.613 1.974-1.588 2.336l1.656 3.97h-2.335l-1.384-3.54h-1.54v3.54zm1.405 3.266c4.31 0 7.78-3.448 7.78-7.757 0-4.31-3.47-7.802-7.78-7.802-4.31 0-7.802 3.493-7.802 7.803 0 4.31 3.492 7.757 7.802 7.757zm-10.275-7.757c0-5.693 4.582-10.275 10.275-10.275 5.647 0 10.274 4.582 10.274 10.275 0 5.67-4.628 10.274-10.275 10.274-5.693 0-10.275-4.604-10.275-10.274M313.73 432.647h-39.58l23.544-123.952-54.185 123.952h-36.087l-6.6-123.27-23.61 123.27h-35.905l30.688-161.24h61.76l3.266 99.82 43.57-99.82h64.346l-31.21 161.24M756.055 431.014c-10.82 2.994-19.302 4.264-28.42 4.264-20.276 0-31.322-10.16-31.322-28.805 0-3.697.408-7.598 1.157-11.77l2.404-12.816 1.882-10.388 18.327-100.115h39.374l-5.716 30.143h20.21l-5.42 31.844h-20.323l-10.41 54.707c-.454 2.426-.658 4.218-.658 5.42 0 6.78 4.06 9.753 13.494 9.753 4.49 0 8.006-.43 10.66-1.27l-5.24 29.03" fill="#fff"/><path d="M857.78 339.156l-.93-4.173 7.915-20.527c-1.86-.204-2.63-.226-3.017-.362-2.11-.454-3.22-.704-3.402-.726-1.202-.227-2.517-.34-3.992-.34-12.996 0-22.363 5.76-34.452 21.274l4.15-23.316h-41.007l-24.382 130.938h39.33c5.42-30.075 7.8-47.2 11-61.352 5.26-23.634 22.84-34.34 35.382-31.958 1.383.272 2.608.318 4.422 1.02l2.405.908 6.577-11.386" fill="#003873"/><path d="M871.66 302.594c-3.334-1.293-4.083-1.293-4.49-1.43-2.11-.452-3.2-.724-3.403-.747-1.202-.227-2.518-.363-3.992-.363-12.996 0-22.363 5.806-34.452 21.32l3.493-19.846h-35.86l-24.132 131.12h39.6c14.177-80.2 20.255-94.263 39.262-94.263 1.406 0 3.062.113 5.013.317l4.603.976 14.357-37.084M599.147 342.944c0 16.557 9.345 27.988 30.53 36.54 16.193 6.577 18.688 8.527 18.688 14.492 0 8.143-7.144 11.817-22.976 11.817-11.954 0-23.067-1.61-35.882-5.17l-5.49 30.233 1.77.295 7.35 1.36c2.335.41 5.85.75 10.455 1.113 9.503.748 16.875 1.11 22.07 1.11 42.253 0 61.76-13.812 61.76-43.75 0-18.01-8.144-28.556-28.194-36.517-16.807-6.623-18.735-8.097-18.735-14.198 0-7.077 6.645-10.706 19.596-10.706 7.85 0 18.6.75 28.784 1.95l5.692-30.346c-10.365-1.407-26.083-2.563-35.223-2.563-44.818 0-60.31 20.14-60.196 44.34M413.526 374.22c-4.15-.43-5.988-.543-8.846-.543-22.43 0-33.794 6.713-33.794 19.936 0 8.165 5.534 13.405 14.198 13.405 16.126 0 27.784-13.427 28.442-32.797zm28.895 58.427h-32.91l.75-13.608c-10.003 10.75-23.34 15.875-41.507 15.875-21.456 0-36.153-14.606-36.153-35.836 0-31.913 25.584-50.534 69.517-50.534 4.49 0 10.23.34 16.15 1.02 1.2-4.33 1.52-6.214 1.52-8.55 0-8.687-6.874-11.93-25.38-11.93-11.274 0-24.09 1.406-32.89 3.65l-5.465 1.408-3.538.86 5.466-29.507c19.755-5.012 32.774-6.94 47.403-6.94 34 0 51.985 13.314 51.985 38.444 0 6.488-.612 11.41-3.22 25.994-3.22 22.908-9.118 46.383-11.727 69.653M551.177 351.79c.227-2.745.318-4.99.318-6.69 0-10.662-6.94-16.922-18.712-16.922-12.566 0-21.615 8.415-25.267 23.52l43.66.09zm21.093 78c-13.608 3.583-26.718 5.352-40.6 5.352-44.227-.068-67.293-20.186-67.293-58.744 0-45.044 29.35-78.18 69.2-78.18 32.547 0 53.368 18.575 53.368 47.674 0 9.64-1.406 19.075-4.876 32.366h-78.682c-.317 2.02-.408 2.95-.408 4.15 0 15.174 11.77 22.93 34.747 22.93 14.153 0 26.923-2.584 41.12-8.3l-6.577 32.75M953.947 356.416c0-13.722-5.58-26.673-21.82-26.673-20.185 0-32.728 23.884-32.728 44.932 0 17.782 8.618 29.757 22.77 29.485 8.552 0 26.855-11.703 30.484-32.116.84-4.74 1.293-10.003 1.293-15.628zm40.758 16.762c-5.943 43.615-36.38 62.985-76.89 62.985-44.794 0-62.87-27.195-62.87-60.468 0-46.473 30.62-77.932 77.93-77.932 41.054 0 62.85 25.902 62.85 59.152 0 8.097 0 8.62-1.02 16.263" fill="#fff"/></svg>