<svg height="307.31027" viewBox="0 0 387.20002 307.31027" width="387.20001" xmlns="http://www.w3.org/2000/svg"><path d="m144.9 201.51028.3-.4h-1.6l.6.2z" fill="#656565"/><circle cx="-122.87976" cy="175.54475" fill="#666766" r="2.9000001" transform="rotate(-89)"/><circle cx="-122.76881" cy="212.6434" fill="#666766" r="2.9005799" stroke-width="1.00020003" transform="rotate(-88.854237)"/><path d="m204.9 116.31028c1 .7 2.3-1.5 7.2-.5s4.7 5.3 6.1 5.8.1-5.7-5.3-7.2-9 1.2-8 1.9z" fill="#666766"/><path d="m177.6 115.81028c-1 .7-2.2-1.5-7.2-.7s-4.9 5.1-6.3 5.6.1-5.7 5.6-7 8.9 1.5 7.9 2.1z" fill="#666766"/><path d="m197.6 140.11028c-1.1-.4-1.1 4.2-6.5 4s-5.1-4.7-6.4-4.4-.3 5.8 6.4 5.9 7.6-5.1 6.5-5.5z" fill="#666766"/><path d="m180.5 156.51028c1.1-.5 4.9 4.2 10.3 3.8s9.4-5.1 10.7-4.8-3.9 6-10.7 6.4-11.4-4.9-10.3-5.4z" fill="#666766"/><path d="m220.9 96.310275c-6-10.9-18.2-16-36.3-15.1-13.1.6-16.5 10.1-19 17.1a39.8 39.8 0 0 1 -1.8 4.600005c-2.1 4-6 7.2-11.1 8.7a24.6 24.6 0 0 1 -5.4 1 66.8 66.8 0 0 0 -.5 31.6c3.6 15.9 13 28.9 25.3 35.6a38.8 38.8 0 0 0 36.7.4 46.7 46.7 0 0 0  14-11.2 57.6 57.6 0 0 0  10.8-19.1 65.8 65.8 0 0 0  3.4-19.9 66.9 66.9 0 0 0 -1.2-13.9c-3.7-2.5-9.5-10-14.9-19.800005z" fill="none"/><path d="m282.7 143.41028.2-.6v-.2c1.7-4.3 1.4-5.9 1.1-6.5a.9.9 0 0 0 -.6-.5.9.9 0 0 0 -.8.1c-1.6.9-3 5-3.5 7.3a60 60 0 0 1 -2 6h3.3c.6-1.5 1.3-3.3 2.3-5.6z" fill="none"/><path d="m266.4 140.51028c1.5-5.9 1.8-9.4.9-10.6a1 1 0 0 0 -.9-.4v0c-1.5 0-2.1 2.8-2.9 7.7l-.2 1.4-.6 3.6c-.4 2.6-.8 4.9-1.2 6.8h3.3c-.1-1.4.4-3.9 1.6-8.5z" fill="none"/><path d="m290.1 142.31028a1.5 1.5 0 0 0 -1.3-.2c-1.4.6-2.5 4.2-3 5.9l-.3 1.1h4.5c.9-3.4.9-6.4.1-6.8z" fill="none"/><path d="m252 146.61028h-.1a1.2 1.2 0 0 0 -1 .5 4.4 4.4 0 0 0 -.8 1.9h3.7c-.3-1.4-.8-2.3-1.8-2.4z" fill="none"/><path d="m274 144.01028c.3-.9.5-1.7.7-2.3a25.5 25.5 0 0 1  .9-2.8c1.3-3.7 2.2-6.9.2-7.6a.8.8 0 0 0 -.7.1c-1.7 1-3.1 6-3.9 10.6a33.3 33.3 0 0 1 -2 7.1h3.6a29.2 29.2 0 0 1 1.2-5.1z" fill="none"/><path d="m281.4 153.91028h.1c.5-.2 1.1-2.5 1.6-4.1l.2-.8h-.7c-1.1 3.3-1.2 4.5-1.2 4.9z" fill="#eaeae9"/><path d="m275.1 149.11028h-.3a6.1 6.1 0 0 0 -.1.7z" fill="#eaeae9"/><path d="m103.7 144.61028v-.4h-.8a43.1 43.1 0 0 0 2.1 5.6 27.5 27.5 0 0 0 -1.3-5.2z" fill="#eaeae9"/><path d="m96.5 149.81028c.4 1.6 1.1 3.9 1.6 4.1h.1c0-.6-.2-2.6-3.1-9.7h-.4c.4.9.7 2 1.1 3.2z" fill="#eaeae9"/><path d="m112.6 149.01028c.4-.4-.1-2.6-.6-4.8h-1a22.1 22.1 0 0 0 1.6 4.8z" fill="#eaeae9"/><path d="m347.9 174.31028h-24.9c-13.9 60.6-68.3 106-133.1 106a136.4 136.4 0 0 1 -32.9-4c-.1.7-.1 1.5-.1 2.2v0a28.9 28.9 0 0 0 28.8 28.8h131.5a28.9 28.9 0 0 0 28.8-28.8v0a28.9 28.9 0 0 0 -25.9-28.7h-3.1a9 9 0 0 1 0-18h29.2l1.7.2a28.9 28.9 0 0 0 28.8-28.8v0a28.9 28.9 0 0 0 -28.8-28.9z" fill="#eaeae9"/><path d="m335.6 32.310275a7.3 7.3 0 1 0 7.3 7.3 7.2 7.2 0 0 0 -7.3-7.3zm0 9.6a2.4 2.4 0 1 1 2.4-2.4 2.4 2.4 0 0 1 -2.4 2.5z" fill="#e2e2e3"/><path d="m28.7 189.91028a10.9 10.9 0 1 0 10.9 10.9 10.9 10.9 0 0 0 -10.9-10.9zm0 17.4a6.5 6.5 0 1 1 6.5-6.5 6.5 6.5 0 0 1 -6.5 6.4z" fill="#e2e2e3"/><path d="m80.9 32.010275a2.5 2.5 0 0 1 -1.2-.3l-7.4-3.9h-.5l-7.4 3.9a2.5 2.5 0 0 1 -3.6-2.6l1.4-8.2a.5.5 0 0 0 -.1-.4l-6-5.8a2.5 2.5 0 0 1 1.4-4.3l8.3-1.1999997.4-.3 3.7-7.5a2.5 2.5 0 0 1 4.5 0l3.7 7.5.4.3 8.3 1.1999997a2.5 2.5 0 0 1 1.4 4.3l-6 5.8a.5.5 0 0 0 -.1.4l1.4 8.2a2.5 2.5 0 0 1 -2.5 2.9zm-8.8-8.1.9.2 6 3.2a.4.4 0 0 0  .6-.4l-1.1-6.6a2 2 0 0 1  .6-1.8l4.9-4.7a.4.4 0 0 0 -.2-.7l-6.7-1a2.2 2.2 0 0 1 -1.5-1.2l-3-6.0999997v0a .4.4 0 0 0 -.7 0l-3 6.0999997a2 2 0 0 1 -1.5 1.1l-6.7 1a .4.4 0 0 0 -.2.7l4.9 4.7a2 2 0 0 1  .6 1.8l-1.1 6.7a.4.4 0 0 0  .6.4l6-3.2z" fill="#e2e2e3"/><path d="m314.8 10.610275a7.3 7.3 0 1 0 7.3 7.3 7.2 7.2 0 0 0 -7.3-7.3zm0 9.6a2.4 2.4 0 1 1 2.4-2.4 2.4 2.4 0 0 1 -2.4 2.4z" fill="#e2e2e3"/><rect fill="#e2e2e3" height="4.8800001" rx="2.4000001" transform="rotate(-45)" width="41.900002" x="187.94527" y="247.63573"/><path d="m28.9 62.010275a28.9 28.9 0 0 0 -28.9 28.8v0a28.9 28.9 0 0 0 28.8 28.800005h25.4a135.9 135.9 0 0 1 24.5-57.700005z" fill="#eaeae9"/><path d="m360.4 141.21028h-7.4v-7.4a1.9 1.9 0 0 0 -1.9-1.9h-.6a1.9 1.9 0 0 0 -1.9 1.9v7.4h-7.4a1.9 1.9 0 0 0 -1.9 1.9v.6a1.9 1.9 0 0 0 1.9 1.9h7.4v7.4a1.9 1.9 0 0 0 1.9 1.9h.6a1.9 1.9 0 0 0 1.9-1.9v-7.4h7.4a1.9 1.9 0 0 0 1.9-1.9v-.6a1.9 1.9 0 0 0 -1.9-1.9z" fill="#e2e2e3"/><path d="m385.3 109.91028h-7.4v-7.4a1.9 1.9 0 0 0 -1.9-1.9h-.6a1.9 1.9 0 0 0 -1.9 1.9v7.4h-7.4a1.9 1.9 0 0 0 -1.9 1.9v.6a1.9 1.9 0 0 0 1.9 1.9h7.4v7.4a1.9 1.9 0 0 0 1.9 1.9h.6a1.9 1.9 0 0 0 1.9-1.9v-7.4h7.4a1.9 1.9 0 0 0 1.9-1.9v-.6a1.9 1.9 0 0 0 -1.9-1.9z" fill="#e2e2e3"/><path d="m174.1 180.81028a38.6 38.6 0 0 0 32.7.3l2-1v0a46.7 46.7 0 0 0 14-11.2 57.6 57.6 0 0 0  10.8-19.1 64.3 64.3 0 0 0  2.2-8.4l.4-2.3a66.8 66.8 0 0 0  .1-19.9c-.2-1.1-.3-2.2-.5-3.2l-.9-.6c-3.8-2.9-9.1-9.9-14.1-19.100005-6-10.9-18.2-16-36.3-15.1-13.1.6-16.5 10.1-19 17.1a39.8 39.8 0 0 1 -1.8 4.600005c-2.1 4-6 7.2-11.1 8.7a24.2 24.2 0 0 1 -4.5.9h-.9c-.3 1-.5 2-.7 3a66.7 66.7 0 0 0 -.9 22.5l.3 2q .3 2 .8 4c3.6 15.9 13 28.9 25.3 35.6z" fill="none"/><path d="m125 171.01028a27.6 27.6 0 0 0 2.8-7.2c2.1-8.2 2.5-14.7.9-16.7a1.2 1.2 0 0 0 -1.1-.5c-1.5.1-1.8 2-2.2 4.9s-.7 5.3-3 5.4-3.7-3.9-5.2-12.7l-.3-2-.6-3.6-.3-1.4c-.8-4.9-1.3-7.7-2.9-7.7v0a1 1 0 0 0 -.9.4c-.9 1.2-.6 4.8.9 10.6l.9 3.7c.8 3.4.8 5.1.1 6a2.2 2.2 0 0 1 -1.9.8c-1.6-.1-2.8-4.1-3.4-6.8s-.4-2.1-.4-2.3c-.7-4.6-2.2-9.6-3.9-10.6a.8.8 0 0 0 -.7-.1c-2 .7-1.1 3.9.2 7.6a25.5 25.5 0 0 1  .9 2.8c.1.6.4 1.4.7 2.3v.2c1 3.3 1.7 5.8.9 7.2a1.9 1.9 0 0 1 -1.2.9c-.7.2-2 .4-4.6-8.2l-.3-1.1c-.5-2.4-1.9-6.4-3.5-7.4a.9.9 0 0 0 -.8-.1.9.9 0 0 0 -.6.5c-.3.6-.5 2.2 1.1 6.5v.2l.2.6.3.8c3.4 8.5 3.4 10.5 2.2 11.3a2.3 2.3 0 0 1 -2.1.3c-1.4-.6-2-2.5-2.8-5.4l-.7-2.4a29.5 29.5 0 0 0 -1.4-3.8 4.2 4.2 0 0 0 -1.6-2.1 1.5 1.5 0 0 0 -1.3.2c-.4.2-.6.9-.6 1.9a18.4 18.4 0 0 0 1.5 7 72.2 72.2 0 0 1  2.4 7.2c2.5 8.4 5.2 17.7 13.3 19.7l2.8.4a21.1 21.1 0 0 0 6.3-.8c3.3-.9 5.9-2 8-4.3v0a13.9 13.9 0 0 0 1.8-2.4z" fill="none"/><path d="m136.9 122.61028c-1.1 4-.8 7.4.8 10.1a11.8 11.8 0 0 0 6 4.8 68.3 68.3 0 0 1  1.3-23.7c-2.5.6-6.5 2.6-8.1 8.8z" fill="none"/><polygon fill="none" transform="translate(-102 -78.789725)"/><path d="m228.1 87.510275-.9-1.5z" fill="none"/><path d="m226.9 85.610275-.8-1.3z" fill="none"/><path d="m224.3 82.010275-.7-.9z" fill="none"/><path d="m225.7 83.810275-.8-1.1z" fill="none"/><path d="m231.3 93.910275-.9-2z" fill="none"/><path d="m229.2 89.610275-.9-1.7z" fill="none"/><path d="m230.3 91.710275-.9-1.8z" fill="none"/><path d="m232.2 96.210275-.9-2.2z" fill="none"/><path d="m222.9 80.310275-.6-.7z" fill="none"/><path d="m143.2 94.010275-1.3 1.1a7.5 7.5 0 0 1 -2 1 7.6 7.6 0 0 0  3.3-2.1z" fill="none"/><path d="m145.6 102.41028-.8.2z" fill="none"/><path d="m145.1 91.110275.6-1.6z" fill="none"/><path d="m145.7 89.510275.5-1.6z" fill="none"/><path d="m144.3 92.610275.8-1.5z" fill="none"/><path d="m143.2 94.010275 1-1.3z" fill="none"/><path d="m146.2 87.910275.2-.7z" fill="none"/><path d="m138.2 96.510275 1.7-.3z" fill="none"/><path d="m237.1 112.21028v0q-1.4-6-3.1-11.1 1.7 5.1 3.1 11.1z" fill="none"/><path d="m233.2 98.610275-.9-2.3z" fill="none"/><path d="m234 101.11028-.8-2.500005z" fill="none"/><path d="m148.1 101.61028-1.7.6z" fill="none"/><path d="m134.5 101.11028 1.4.8h.2l1.3.5v0a12.2 12.2 0 0 0 3.3.5h2.1l2.1-.4.8-.2.7-.2 1.7-.6c5.1-1.900005 6.4-6.700005 7.9-12.300005 2.5-9.3 5.6-20.8 27.7-22.1 16.4-1 28.6 2.6 37.3 11.1l1.4 1.4.6.7.7.8.7.9.5.7.8 1.1.4.5.8 1.3.3.5.9 1.5.2.4.9 1.7.2.3.9 1.8v.2l.9 2h .1l.9 2.2v0l .9 2.3v0l .8 2.500005v0q1.7 5.1 3.1 11.1v0c .1-5.8-1.4-19.700005-8.6-32.800005-8.3-15.1-20.8-23.1-37.1-23.8-27-1.2-42.4 8.4-44.4 27.5v1.1 0 .6 0 .6 0 .6 0 .7 0l-.2.7v0l-.5 1.6v0l-.6 1.6v0l-.8 1.5v0l-1 1.3v0a7.6 7.6 0 0 1 -3.3 2.1v0l-1.7.3h-2.8a9.1 9.1 0 0 1 -7.7-5.6c1 4.5 2.8 8.7 6.2 11.000005z" fill="none"/><path d="m143 104.91028 2.7-.5z" fill="none"/><path d="m135.2 103.81028.6.3z" fill="none"/><path d="m133.3 102.81028.8.5z" fill="none"/><path d="m134.4 103.41028.6.3z" fill="none"/><path d="m146 104.31028 1.1-.3z" fill="none"/><path d="m137 104.51028.7.2z" fill="none"/><path d="m147.4 103.91028 1.4-.5z" fill="none"/><polygon fill="none" transform="translate(-102 -78.789725)"/><path d="m136 108.91028-.4-.2z" fill="none"/><path d="m136.1 104.21028.7.2z" fill="none"/><path d="m145.8 110.71028h2.1a22.5 22.5 0 0 0 4.2-.9c4.6-1.4 8.1-4.2 9.9-7.7a38 38 0 0 0 1.7-4.400005c2.5-7.1 6.3-17.7 20.7-18.4h4.1c16.7 0 28.1 5.4 34.1 16.2 4.9 8.900005 9.4 14.800005 12.5 17.600005-6.3-27.900005-17.8-45.900005-51.4-43.800005-20.6 1.3-23.4 11.6-25.9 20.7-1.6 5.9-3.1 11.500005-9.2 13.700005l-1.4.5h-.2l-1.1.3h-.3l-2.7.5h-5.3l-.7-.2h-.2l-.7-.2h-.3l-.6-.3h-.1l-.6-.3h-.2l-.8-.5c-5.4-3.700005-7.1-11.100005-7.7-15.500005-1 6.1-.9 15.700005 8.2 20.600005l1.7.8.4.2 1.6.6h.2a24.9 24.9 0 0 0 4.1.9v0l2.1.2z" fill="none"/><path d="m144.9 83.410275v-.6c2.1-20.1 18.7-30.5 46.5-29.3 25.1 1.1 37 18.6 42.6 33.1 4.2 11 5.4 22.000005 4.9 27.000005h.1a9.1 9.1 0 0 0 2.3-5.7c0-.7.1-1.5.1-2.4.5-9.600005 1.8-32.100005-12.2-47.500005-8.9-9.8-22.6-15.1-40.8-15.7s-30.3 4.2-38 14.4-9.2 23.8-8.7 35.9c2-2.1 2.8-5.5 3.2-9.2z" fill="none"/><path d="m267.6 201.51028-.2.3z" fill="none"/><path d="m268.3 200.01028-.2.4z" fill="none"/><polygon fill="none" transform="translate(-102 -78.789725)"/><path d="m266.8 203.01028.6-1.2.2-.3.5-1.2.2-.4.5-1.2v-.3a52.2 52.2 0 0 0 1.8-5.7v-.3l.3-1.2v-.5l.2-1.1v-.5l.2-1v-.5c.2-1.2.4-2.3.6-3.4v-3.5 0c .7 3.1-.8 14.7-5.1 22.3z" fill="none"/><path d="m263.3 207.71028.3-.3.4-.4h.1z" fill="none"/><path d="m262.9 208.11028-.2.2.8-.9-.3.3z" fill="none"/><path d="m263.9 207.01028 1.1-1.3-1 1.2z" fill="none"/><path d="m261.5 209.51028-.2.2 1-.9h-.1z" fill="none"/><path d="m262.1 208.91028h.1l.5-.5.2-.2z" fill="none"/><path d="m260.9 210.11028.4-.4.2-.2z" fill="none"/><path d="m251 193.61028-1 1.1v0z" fill="none"/><path d="m249.8 194.91028-.2.2v0z" fill="none"/><path d="m250 194.71028v0l-.3.3z" fill="none"/><path d="m249.6 195.11028v0l-.3.3v0z" fill="none"/><path d="m249.3 195.41028-.9.7z" fill="none"/><polygon fill="none" transform="translate(-102 -78.789725)"/><path d="m123.7 176.61028v-.8 0z" fill="none"/><path d="m246.4 219.31028 1.3-.6z" fill="#f4dce2"/><path d="m243.9 220.41028 1.9-.8z" fill="#f4dce2"/><path d="m112.4 198.41028.4 1.1v0z" fill="#f4dce2"/><path d="m248.4 218.41028 1.2-.6z" fill="#f4dce2"/><path d="m251.8 192.61028-.5.7-.2.2-1 1.1a17.2 17.2 0 0 0 1.7-2z" fill="#f4dce2"/><path d="m249.6 195.11028-.3.3z" fill="#f4dce2"/><path d="m266.1 204.21028.7-1.2z" fill="#f4dce2"/><path d="m111.8 196.81028.2.6z" fill="#f4dce2"/><path d="m250.3 217.41028 1.2-.7z" fill="#f4dce2"/><path d="m254.5 214.91028 1.1-.7z" fill="#f4dce2"/><path d="m132.9 196.11028-1.2-1-.4-.4-.7-.7a14.1 14.1 0 0 0 2.3 2.1z" fill="#f4dce2"/><path d="m238.1 222.31028 1.3-.3z" fill="#f4dce2"/><path d="m240.1 221.71028 1.3-.4z" fill="#f4dce2"/><path d="m258 212.51028.9-.7z" fill="#f4dce2"/><path d="m252.2 216.41028 1.7-1z" fill="#f4dce2"/><path d="m256.3 213.71028.9-.7z" fill="#f4dce2"/><path d="m235.7 222.81028 1.9-.4z" fill="#f4dce2"/><path d="m259.5 211.31028 1.4-1.2z" fill="#f4dce2"/><path d="m235.7 222.81028 1.9-.4h.6l1.3-.3.7-.2 1.3-.4.6-.2 1.5-.6h.4l1.9-.8.6-.3 1.3-.6.7-.4 1.2-.6.7-.4 1.2-.7.6-.3 1.7-1 .6-.4 1.1-.7.7-.5.9-.7.7-.5.9-.7.6-.5 1.4-1.2v0l .6-.6.6-.6.8-.8.3-.4.8-.8 1-1.2 1-1.4v0l .7-1.2v0c4.3-7.6 5.8-19.2 6.1-22.1v-1.1l-2.9.3a24 24 0 0 1 -6.2-.9 21.9 21.9 0 0 1 -6.3-2.6l-.3 1.5v.2 0 .2l-.4 1.7v0l-.3 1.1v.2l-.2.6-.2.7v0l-.3 1v .5a37.2 37.2 0 0 1 -1.5 3.9v0l-.6 1.2-.7 1.2v0l-.2.4-.5.8v0l-.2.3a17.2 17.2 0 0 1 -1.7 2.1l-.3.3-.2.2-.3.3-.9.7c-4.5 3.3-10.3 5.1-14.4 6h-.7l-.4-.5a10.4 10.4 0 0 0 -8.4-4.4h-16v .7c-.1 4.7-7.8 8.3-17.8 8.3h-.7a32.4 32.4 0 0 1 -12.6-2.5c-3.6-1.7-5.6-4-5.6-6.4h-18.7a10.3 10.3 0 0 0 -7.9 3.7h-1.7a35.6 35.6 0 0 1 -10.7-5 14.1 14.1 0 0 1 -2.3-2.1h-.1l-.4-.4v0l-.6-.8-.4-.6v0l-.3-.4-1.2-2-.2-.4v0l-.3-.7-.4-.9v0l-.2-.5v0-.3l-.6-1.7-.3-.7v0l-.2-.6v0l-.4-1.2v0c-.4-1.4-.7-2.8-1-4.1v0-.6 0-.8 0-.5 0-.8a19.1 19.1 0 0 1 -7.8 3.7 24 24 0 0 1 -6.2.9h-1.2c.1.7.2 1.5.3 2.5v5.2l.2 1.1v.8l.3 1.2v0l .3 1.3v1.1l.2.6.2.6.2.6v.4l.2.6.2.6.2.4.2.6.4 1.1.2.5.7 1.5a24.9 24.9 0 0 0 2.6 4.2c5.3 6.8 15.9 13.5 25.8 16.3l.7.2v47.3a135.4 135.4 0 0 0 92 .7v-46.9z" fill="#f4dce2"/><path d="m242 221.11028 1.5-.6z" fill="#f4dce2"/><path d="m257.2 178.91028-.4 1.7z" fill="#f4dce2"/><path d="m126.2 186.11028-.2-.6v-.3l.6 1.7z" fill="#f4dce2"/><path d="m125.4 183.91028.2.6z" fill="#f4dce2"/><path d="m127.4 189.01028-.2-.4.3.7z" fill="#f4dce2"/><path d="m125 182.31028-.4-1.5-.2-.7-.2-.8-.2-.7c.3 1.3.6 2.7 1 4.1z" fill="#f4dce2"/><path d="m111.2 195.21028.2.6z" fill="#f4dce2"/><path d="m255.9 183.81028v.4l.3-1z" fill="#f4dce2"/><path d="m252.7 191.11028-.2.3.2-.4z" fill="#f4dce2"/><path d="m126.6 187.21028.2.5z" fill="#f4dce2"/><path d="m257.6 176.91028-.3 1.5z" fill="#f4dce2"/><path d="m265 205.71028-1 1.2z" fill="#f4dce2"/><path d="m255.4 185.31028-.2.6v.4l-1 2.3v0a37.2 37.2 0 0 0 1.5-3.9z" fill="#f4dce2"/><path d="m256.8 180.61028-.2.9v.2l.3-1.1z" fill="#f4dce2"/><path d="m129.6 192.61028-.3-.5.4.6z" fill="#f4dce2"/><path d="m254 188.71028-.6 1.2z" fill="#f4dce2"/><path d="m110.2 191.51028.3 1.3z" fill="#f4dce2"/><path d="m262.1 208.91028-.6.6z" fill="#f4dce2"/><path d="m130.2 193.51028.4.4z" fill="#f4dce2"/><path d="m262.9 208.11028.3-.4z" fill="#f4dce2"/><path d="m128.6 191.11028-.2-.4-.6-1.1 1.2 2z" fill="#f4dce2"/><path d="m108.7 182.81028c-.1-.9-.2-1.8-.3-2.5s.1 1.6.3 2.5z" fill="#f4dce2"/><path d="m249.6 217.81028.7-.4z" fill="#f4dce2"/><path d="m257.2 213.01028.7-.5z" fill="#f4dce2"/><path d="m251.5 216.71028.6-.3z" fill="#f4dce2"/><path d="m259.5 211.31028-.6.5-.9.7-.7.5-.9.7-.7.5-1.1.7-.6.4-1.7 1-.6.3-1.2.7-.7.4-1.2.6-.7.4-1.3.6-.6.3-1.9.8h-.4l-1.5.6-.6.2-1.3.4h-.3a55.9 55.9 0 0 0 21.1-11.8v0z" fill="#f4dce2"/><polygon fill="#f4dce2" transform="translate(-102 -78.789725)"/><path d="m247.7 218.81028.7-.4z" fill="#f4dce2"/><path d="m253.9 215.41028.6-.4z" fill="#f4dce2"/><path d="m255.6 214.21028.7-.5z" fill="#f4dce2"/><path d="m258.9 211.81028.6-.5z" fill="#f4dce2"/><path d="m235.7 222.81028 1.9-.4h-.1z" fill="#f4dce2"/><path d="m239.4 221.91028h.7z" fill="#f4dce2"/><path d="m241.4 221.31028.6-.2z" fill="#f4dce2"/><path d="m238.1 222.31028h-.2l1.8-.5h-.3z" fill="#f4dce2"/><path d="m245.8 219.61028.6-.3z" fill="#f4dce2"/><path d="m257.6 176.91028v0l-.3 1.5v0z" fill="#f4dce2"/><path d="m257.2 178.71028v.2 0z" fill="#f4dce2"/><path d="m257.2 178.91028v0l-.4 1.7v0z" fill="#f4dce2"/><path d="m257.9 174.71028a18.2 18.2 0 0 0 6.4 2.9 19.6 19.6 0 0 0  7.7.7 12.4 12.4 0 0 0  3.1-.8c6.8-2.8 9.3-11.3 11.6-19.1a72.3 72.3 0 0 1 2.4-7.2 21.9 21.9 0 0 0  .8-2.1c1-3.4 1-6.3.2-6.8a1.5 1.5 0 0 0 -1.3-.2c-1.4.6-2.5 4.2-3 5.9l-.3 1.1-.4 1.3c-.8 2.9-1.4 4.9-2.8 5.4a2.3 2.3 0 0 1 -2.1-.3c-.9-.6-1.1-1.9.4-6.4.5-1.5 1.2-3.4 2.1-5.7l.2-.6v-.2c1.7-4.3 1.4-5.9 1.1-6.5a.9.9 0 0 0 -.6-.5.9.9 0 0 0 -.8.1c-1.6.9-3 5-3.5 7.3a60 60 0 0 1 -2 6c-1.5 3.6-2.3 3.4-2.9 3.3a1.9 1.9 0 0 1 -1.2-.9 4 4 0 0 1 -.3-2.4 29.2 29.2 0 0 1  1.2-5c .3-.9.5-1.7.7-2.3a25.5 25.5 0 0 1  .9-2.8c1.3-3.7 2.2-6.9.2-7.6a.8.8 0 0 0 -.7.1c-1.7 1-3.1 6-3.9 10.6a33.3 33.3 0 0 1 -2 7.1c-.5 1.1-1.1 1.9-1.8 2a2.2 2.2 0 0 1 -1.9-.8 2.5 2.5 0 0 1 -.5-1.2c-.2-1.5.3-4 1.5-8.6s1.8-9.4.9-10.6a1 1 0 0 0 -.9-.4v0c-1.5 0-2.1 2.8-2.9 7.7l-.2 1.4-.6 3.6c-.4 2.6-.8 4.9-1.2 6.8-1 5.4-2 7.9-4.3 7.8s-2.7-2.9-3-5.4c-.1-.9-.3-1.8-.4-2.5s-.8-2.3-1.8-2.4h-.1a1.2 1.2 0 0 0 -1 .5 4.4 4.4 0 0 0 -.8 1.9c-.6 3 0 8.4 1.7 14.7 1.1 4.3 2.5 7.2 4.3 9.3a12.1 12.1 0 0 0 1.8 1.8z" fill="none"/><path d="m243.3 118.61028.4.5z" fill="none"/><path d="m241.9 117.21028.2.2z" fill="none"/><path d="m242.8 118.11028.3.3z" fill="none"/><path d="m242.6 117.91028-.3-.2z" fill="none"/><path d="m238.4 116.01028a.6.6 0 0 0 -.4.3h.2z" fill="none"/><path d="m244.9 120.81028.3.5z" fill="none"/><path d="m244.4 120.11028.3.5z" fill="none"/><path d="m245.3 121.71028.2.5z" fill="none"/><path d="m245.7 122.51028.2.6z" fill="none"/><path d="m243.9 119.31028.4.6z" fill="none"/><path d="m246 123.51028.3 1z" fill="none"/><path d="m242.1 117.41028-.2-.2-.3-.2h-.2l-.3-.2v0l-1.3-.7a2.7 2.7 0 0 0 -1.3 0l-.2.2h-.3a69.4 69.4 0 0 1  .3 23.4 9.3 9.3 0 0 0  6.6-3.5c2.1-2.8 2.7-6.9 1.5-11.7l-.3-1v-.3l-.2-.6v-.4l-.2-.5-.2-.3-.3-.5-.2-.3-.3-.5-.2-.2-.4-.6h-.1l-.4-.5-.2-.2-.3-.3-.2-.2-.3-.2z" fill="none"/><path d="m190.2 186.61028a40.6 40.6 0 0 1 -16-3.6l-.2 12v2.4 0c0 1.6 1.6 3.3 4.4 4.6a30.4 30.4 0 0 0 11.8 2.4c9.6.2 16.4-3.2 16.5-6.4v-2.6l.2-11.9a41 41 0 0 1 -16 3.2z" fill="none"/><g fill="#656565"><path d="m248.4 196.11028.9-.7z"/><path d="m265 205.71028 1-1.5v0z"/><path d="m272.5 184.41028c-.2 1-.3 2.2-.6 3.4.2-1.2.4-2.4.6-3.4z"/><path d="m268.1 200.31028-.5 1.2z"/><path d="m262.7 208.31028-.5.5z"/><path d="m260.9 210.11028.4-.4z"/><path d="m263.9 207.01028-.4.4z"/><path d="m266.8 203.01028.7-1.2-.6 1.2z"/><path d="m271.8 188.21028-.2 1z"/><path d="m271.5 189.81028-.2 1.1z"/><path d="m270.8 192.81028a52.2 52.2 0 0 1 -1.8 5.7 52.1 52.1 0 0 0  1.8-5.7z"/><path d="m271.1 191.31028-.3 1.2z"/><path d="m268.8 198.81028-.5 1.2z"/><path d="m123.8 177.11028v0-.5 0z"/><path d="m124.1 178.51028v0-.7 0z"/><path d="m125.4 183.91028v0l-.4-1.2v0z"/><path d="m125.9 185.21028-.3-.8v0z"/><path d="m112 197.41028.4 1-.2-.6z"/><path d="m127.2 188.61028-.4-.9v0z"/><path d="m111.4 195.81028.3 1-.2-.6z"/><path d="m112.8 199.51028.9 2-.7-1.5z"/><path d="m109.9 190.21028.3 1.3v0z"/><path d="m109.5 188.21028v-1l .5 2.6v-.4z"/><path d="m110.6 192.81028.2.7v-.7z"/><path d="m110.9 193.91028.4 1.2-.2-.6z"/><path d="m127.8 189.71028-.2-.4v0z"/><path d="m255.8 184.21028-.2.5v-.5z"/><path d="m256.3 182.51028.2-.6v-.2l-.4 1.5v0z"/><path d="m250 194.71028-.4.4.2-.2z"/><path d="m130.2 193.51028-.6-.8z"/><path d="m253.5 189.91028-.7 1.2v0z"/><path d="m129.2 192.21028-.3-.4z"/><path d="m252 192.21028.5-.8-.8 1.2.3-.3z"/><path d="m254 188.71028v0l-.6 1.2v0z"/><path d="m253.5 189.91028v0l-.7 1.2z"/><path d="m241.6 117.01028.3.2z"/><path d="m239.7 116.01028 1.3.7a10.4 10.4 0 0 0 -2.5-1.1l-.2.4a2.7 2.7 0 0 1 1.4 0z"/><path d="m242.1 117.41028.3.2z"/><path d="m242.6 117.91028.2.2z"/><path d="m243.1 118.41028.2.2z"/><path d="m244.3 119.81028.2.2z"/><path d="m244.7 120.51028.2.3z"/><path d="m245.1 121.31028.2.3z"/><path d="m241.1 116.71028.3.2z"/><path d="m237 115.21028-.2 1.2h.5l.7-.2-.2-1z"/><path d="m223.6 81.110275-.7-.8z"/><path d="m224.9 82.610275-.5-.7z"/><path d="m222.3 79.610275-1.3-1.4z"/><path d="m226.1 84.310275-.4-.5z"/><path d="m229.4 89.910275-.2-.3z"/><path d="m227.2 86.110275-.3-.5z"/><path d="m228.3 87.910275-.2-.4z"/><path d="m141.8 103.01028 3-.4-2.1.4z"/><polygon transform="translate(-102 -78.789725)"/><path d="m137.3 102.51028a12.1 12.1 0 0 0 3.3.5v0a12.2 12.2 0 0 1 -3.3-.5z"/><path d="m146.3 102.21028-.7.2z"/><path d="m137.3 102.51028-1.3-.5z"/><path d="m135.8 101.91028-1.4-.8z"/><path d="m237.3 113.21028v0l-.3-1.1v0z"/><polygon transform="translate(-102 -78.789725)"/><path d="m141.9 110.51028a24.9 24.9 0 0 1 -4.1-.9 24.6 24.6 0 0 0  4.1.9z"/><path d="m137.6 109.51028-1.6-.6z"/><path d="m144 110.71028-2.1-.2a24.7 24.7 0 0 0 3.9.2z"/><path d="m135.6 108.71028-1.7-.8z"/></g><circle cx="84.699997" cy="257.51025" fill="#fff" r="2.3"/><path d="m325.2 142.51028c0-74.700005-60.7-135.4000047-135.4-135.4000047s-135.4 60.7999997-135.4 135.4000047a134.7 134.7 0 0 0 26.7 80.6l3.7-.2a34.8 34.8 0 0 1 34.7 34.7v.5a135 135 0 0 0 21.4 10.6v-45c-10-3-20.7-9.8-26.1-16.8a28.2 28.2 0 0 1 -3.2-5.4c-3.6-7.7-4.8-17.3-5.2-21.4-9.7-1.9-12.9-12.8-15.4-21.2a70.9 70.9 0 0 0 -2.3-7 20.6 20.6 0 0 1 -1.7-7.7c0-1.7.5-3.1 1.7-3.7a3.5 3.5 0 0 1 3-.2c1.3.5 2.2 1.9 3 3.9s.7 2 1.1 3.2l.7 2.4c.4 1.6 1.1 3.9 1.6 4.1h.1c0-.6-.2-2.6-3.1-9.7v0l-.2-.6v-.2c-1-2.5-2.2-6-1.1-8.2a2.9 2.9 0 0 1 1.9-1.5 2.9 2.9 0 0 1  2.3.4c2.8 1.7 4.2 7.9 4.4 8.6l.5 1.6a43.1 43.1 0 0 0 2.1 5.6 27.5 27.5 0 0 0 -1.2-5.2v-.5c-.2-.8-.5-1.5-.6-2.1a24.4 24.4 0 0 0 -.8-2.5c-1.2-3.5-3.1-8.7 1-10.1a2.8 2.8 0 0 1 2.4.2c2.9 1.7 4.3 8.9 4.8 12 .1.6.3 1.5.6 2.6a22.1 22.1 0 0 0 1.6 4.8v0c .4-.4-.1-2.6-.6-4.8l-.8-3.2c-1.8-6.8-2-10.5-.6-12.4a3 3 0 0 1 2.4-1.1v0c3.3 0 3.9 3.9 4.8 9.4l.2 1.4.6 3.6.4 2.3c.9 5.6 1.9 10.7 3 10.7v0c .7 0 1-2 1.2-3.6s.8-6.4 4.1-6.6a3.2 3.2 0 0 1 2.8 1.2c3 3.6.6 14.1-.5 18.5s-2.6 7.5-4.4 9.7c.7 5.2 2.9 16.2 8.8 20.5a33.6 33.6 0 0 0 10.1 4.7 12.3 12.3 0 0 1  9-3.9h18.7v-3l .2-10.3c-13.4-7-23.6-21-27.4-38q-.5-2.2-.8-4.4a14.2 14.2 0 0 1 -8-6c-1.9-3.2-2.2-7.1-1-11.7s4.9-8.4 7.7-9.5h-.3a26.1 26.1 0 0 1 -9.4-2.9c-15.2-8.2-7.8-28.300005-7.8-28.500005a1 1 0 0 1 1.7-.3 12.4 12.4 0 0 1  1.6 4.3c1 4 2.4 8.9 7.7 9.4a7.2 7.2 0 0 0 3.5-.5c-.7-12.8.8-27.6 9.1-38.6s21.5-15.8 39.7-15.1 32.9 6.2 42.2 16.4c14.6 16 13.3 39.1 12.7 49.000005-.1.9-.1 1.7-.1 2.4a11 11 0 0 1 -2.3 6.4c2.7 1.3 5.8 4 7.2 9.6s.7 10.1-1.8 13.4a11.3 11.3 0 0 1 -8.5 4.3 66.2 66.2 0 0 1 -1.9 7.7 59.8 59.8 0 0 1 -11.5 20.9 48.4 48.4 0 0 1 -15.6 12.2v0l-.2 12.3v.6h15.9a12.4 12.4 0 0 1 9.7 4.7c3.9-.9 9.1-2.6 13.1-5.5s7.6-13.3 8.5-18.9c-2.5-2.3-4.4-5.7-5.9-11.3-.9-3.4-2.5-10.6-1.7-15.3a6.7 6.7 0 0 1 1.2-3.2 3.2 3.2 0 0 1  2.8-1.2c2.4.2 3.3 2.2 3.7 4.4s.2 1.5.3 2.2.5 3.6 1.2 3.6v0c .8 0 1.5-2.5 2.2-5.8s.8-4.7 1.2-7.1l.6-3.6.2-1.4c.9-5.5 1.5-9.4 4.8-9.4v0a3 3 0 0 1 2.4 1.1c1.4 1.8 1.2 5.5-.6 12.4-.6 2.2-1.9 7.3-1.4 8v0c .7-1.1 1.9-5.7 2.2-7.4s1.9-10.3 4.8-12a2.8 2.8 0 0 1 2.4-.2c4.1 1.5 2.2 6.7 1 10.1a24.3 24.3 0 0 0 -.8 2.5c-.1.7-.4 1.6-.7 2.5a36.1 36.1 0 0 0 -1.1 4.5 6.1 6.1 0 0 0 -.1.7l.3-.7a59.9 59.9 0 0 0 2.3-6.5c.1-.6 1.6-6.8 4.4-8.5a2.9 2.9 0 0 1 2.3-.4 2.9 2.9 0 0 1  1.9 1.5c1.1 2.1-.1 5.7-1.1 8.2v.2l-.2.6c-.8 2-1.4 3.6-1.9 4.9-1.1 3.2-1.3 4.4-1.2 4.8h.1c.5-.2 1.1-2.5 1.6-4.1l.2-.8.5-1.6c1.2-3.8 2.3-6.3 4.1-7.1a3.5 3.5 0 0 1 3 .2c2.2 1.1 2 5.1 1 8.6a24.7 24.7 0 0 1 -1 2.9 71.1 71.1 0 0 0 -2.3 7c-2.3 7.9-5.3 17.9-13.6 20.7-.4 4.7-2.1 19.1-8.4 27.3s-18.9 15.5-29.8 17.7v44.9a135.6 135.6 0 0 0 88.4-127.3z" fill="none"/><path d="m189.8 5.1102753c-75.8 0-137.4 61.5999997-137.4 137.4000047a136.6 136.6 0 0 0 26.4 80.9 34.7 34.7 0 1 0  40.5 37l-2.2-1.4a32.4 32.4 0 1 1 -36.7-33.5l2.4-.2h2a32.4 32.4 0 0 1 32.4 31.5l2.3 1.5c0-.2 0-.3 0-.5a34.8 34.8 0 0 0 -34.7-34.7l-3.7.2a134.7 134.7 0 0 1 -26.7-80.6c0-74.700005 60.7-135.4000047 135.4-135.4000047s135.4 60.6999997 135.4 135.4000047a135.6 135.6 0 0 1 -88.4 127v-45.1c10.9-2.2 23.6-9.7 29.8-17.7s8-22.5 8.4-27.3c8.4-2.8 11.3-12.8 13.6-20.7a71.1 71.1 0 0 1 2.3-7 24.7 24.7 0 0 0  1-2.9c1-3.5 1.2-7.4-1-8.6a3.5 3.5 0 0 0 -3-.2c-1.9.8-3 3.3-4.1 7.1l-.5 1.6-.2.8c-.4 1.6-1.1 3.9-1.6 4.1h-.1c0-.4.1-1.6 1.2-4.8.4-1.3 1-2.9 1.9-4.9l.2-.6v-.2c1-2.5 2.2-6 1.1-8.2a2.9 2.9 0 0 0 -1.9-1.5 2.9 2.9 0 0 0 -2.3.4c-2.8 1.7-4.2 7.9-4.4 8.5a59.9 59.9 0 0 1 -2.3 6.5l-.3.7a6.1 6.1 0 0 1  .1-.7 36.1 36.1 0 0 1  1.1-4.5c.3-.9.6-1.8.7-2.5a24.3 24.3 0 0 1  .8-2.5c1.2-3.5 3.1-8.7-1-10.1a2.8 2.8 0 0 0 -2.4.2c-2.9 1.7-4.3 8.9-4.8 12s-1.4 6.3-2.2 7.4v0c-.6-.7.8-5.8 1.4-8 1.8-6.8 2-10.5.6-12.4a3 3 0 0 0 -2.4-1.1v0c-3.3 0-3.9 3.9-4.8 9.4l-.2 1.4-.6 3.6c-.4 2.5-.8 5-1.2 7.1s-1.4 5.8-2.2 5.8v0c-.7 0-1-2-1.2-3.6s-.2-1.5-.3-2.2-1.3-4.3-3.7-4.4a3.2 3.2 0 0 0 -2.8 1.2 6.7 6.7 0 0 0 -1.2 3.2c-.8 4.7.9 11.9 1.7 15.3 1.5 5.6 3.4 9 5.9 11.3-.9 5.6-3.2 15-8.5 18.9s-9.2 4.6-13.1 5.5a12.4 12.4 0 0 0 -9.7-4.7h-16v-.6l.2-12.3v0a48.4 48.4 0 0 0 15.6-12.2 59.8 59.8 0 0 0  11.5-20.9 66.2 66.2 0 0 0  1.9-7.7 11.3 11.3 0 0 0  8.5-4.3c2.5-3.3 3.2-8 1.8-13.4s-4.5-8.3-7.2-9.6a11 11 0 0 0 2.3-6.4c0-.7.1-1.5.1-2.4.6-9.900005 1.9-33.000005-12.7-49.000005-9.3-10.2-23.5-15.7-42.2-16.4s-31.6 4.4-39.7 15.1-9.9 25.8-9.1 38.6a7.2 7.2 0 0 1 -3.5.5c-5.4-.5-6.7-5.4-7.7-9.4a12.4 12.4 0 0 0 -1.6-4.3 1 1 0 0 0 -1.7.3c-.1.2-7.5 20.400005 7.8 28.500005a26.1 26.1 0 0 0 9.4 2.9h.3c-2.8 1.2-6.2 3.8-7.7 9.5s-.9 8.5 1 11.7a14.2 14.2 0 0 0 8 6q .3 2.3.8 4.4c3.8 17 14 31 27.3 37.8l-.2 10.3v3h-18.6a12.3 12.3 0 0 0 -9 3.9 33.6 33.6 0 0 1 -10.1-4.7c-5.9-4.3-8.1-15.3-8.8-20.5 1.8-2.2 3.2-5.3 4.4-9.7s3.5-14.9.5-18.5a3.2 3.2 0 0 0 -2.8-1.2c-3.2.2-3.7 3.8-4.1 6.6s-.5 3.6-1.2 3.6v0c-1.1 0-2.1-5.1-3-10.7l-.4-2.3-.6-3.6-.2-1.4c-.9-5.5-1.5-9.4-4.8-9.4v0a3 3 0 0 0 -2.4 1.1c-1.4 1.8-1.2 5.5.6 12.4l.8 3.2c.5 2.1.9 4.4.6 4.8v0a22.1 22.1 0 0 1 -1.7-4.4c-.3-1-.5-2-.6-2.6-.5-3-1.9-10.3-4.8-12a2.8 2.8 0 0 0 -2.4-.2c-4.1 1.5-2.2 6.7-1 10.1a24.4 24.4 0 0 1  .8 2.5c.1.6.3 1.3.6 2.1v.4a27.5 27.5 0 0 1 1.2 5.2 43.1 43.1 0 0 1 -2.1-5.6l-.5-1.6c-.2-.7-1.6-6.9-4.4-8.6a2.9 2.9 0 0 0 -2.3-.4 2.9 2.9 0 0 0 -1.9 1.5c-1.1 2.1.1 5.7 1.1 8.2v.2l.2.6v0c2.9 7.1 3.1 9.1 3.1 9.7h-.1c-.5-.2-1.1-2.5-1.6-4.1l-.7-2.4c-.4-1.2-.7-2.3-1.1-3.2s-1.7-3.4-3-3.9a3.5 3.5 0 0 0 -3 .2c-1.2.6-1.7 2-1.7 3.7a20.6 20.6 0 0 0 1.7 7.7 70.9 70.9 0 0 1  2.3 7c2.5 8.4 5.7 19.2 15.4 21.2.4 4.1 1.6 13.7 5.2 21.4a28.2 28.2 0 0 0 3.2 5.4c5.4 7 16.1 13.8 26.1 16.8v45.1a135 135 0 0 1 -21.3-10.4q0 1.1-.1 2.3a137 137 0 0 0 21.5 10.5l2 .8a137.5 137.5 0 0 0 92 .7l2-.7a137.7 137.7 0 0 0 90.4-129.1c0-75.900005-61.6-137.6000047-137.4-137.6000047zm62 158.7000047c-1.7-6.4-2.3-11.8-1.7-14.7a4.4 4.4 0 0 1  .8-1.9 1.2 1.2 0 0 1  1-.5h.1c1 .1 1.5 1 1.8 2.4s.3 1.5.4 2.5c.3 2.5.7 5.3 3 5.4s3.3-2.4 4.3-7.8c.4-1.9.7-4.2 1.2-6.8l.6-3.6.2-1.4c.8-4.9 1.3-7.7 2.9-7.7v0a1 1 0 0 1  .9.4c.9 1.2.6 4.8-.9 10.6s-1.7 7.1-1.5 8.6a2.5 2.5 0 0 0  .5 1.2 2.2 2.2 0 0 0  1.9.8c.7 0 1.3-.8 1.8-2a33.3 33.3 0 0 0 2-7.1c.7-4.6 2.2-9.6 3.9-10.6a.8.8 0 0 1  .7-.1c2 .7 1.1 3.9-.2 7.6a25.5 25.5 0 0 0 -.9 2.8c-.1.6-.4 1.4-.7 2.3a29.2 29.2 0 0 0 -1.2 5 4 4 0 0 0  .3 2.4 1.9 1.9 0 0 0  1.2.9c.6.1 1.4.3 2.9-3.3a60 60 0 0 0 2-6c .5-2.3 1.9-6.4 3.5-7.3a.9.9 0 0 1  .8-.1.9.9 0 0 1  .6.5c.3.6.5 2.2-1.1 6.5v.2l-.2.6c-.9 2.3-1.6 4.1-2.1 5.7-1.5 4.5-1.3 5.9-.4 6.4a2.3 2.3 0 0 0 2.1.3c1.4-.6 2-2.5 2.8-5.4l.4-1.3.3-1.1c.5-1.7 1.6-5.3 3-5.9a1.5 1.5 0 0 1 1.3.2c.9.4.9 3.4-.2 6.8a21.9 21.9 0 0 1 -.8 2.1 72.3 72.3 0 0 0 -2.4 7.2c-2.3 7.8-4.8 16.3-11.6 19.1a12.4 12.4 0 0 1 -3.1.8 19.6 19.6 0 0 1 -7.7-.7 18.2 18.2 0 0 1 -6.4-2.9 12.1 12.1 0 0 1 -1.8-1.7c-1.8-2.2-3.2-5.1-4.3-9.4zm-10.4-46.9h.2l.3.2.2.2.3.2.3.2.2.2.3.3.2.2.4.5h.1l.4.6.2.2.3.5.2.3.3.5.2.3.2.5v.3l.2.6v.3l.3 1c1.2 4.8.7 8.9-1.5 11.7a9.3 9.3 0 0 1 -6.6 3.5 69.4 69.4 0 0 0 -.3-23.4l-.7.2h-.5l.2-1.2h.8l.2 1a .6.6 0 0 1  .4-.3l.2-.4a10.4 10.4 0 0 1 2.5 1.1v0zm-90.9-60.200005c7.7-10.2 20.5-15 38-14.4s31.8 5.9 40.8 15.7c14 15.4 12.7 37.9 12.2 47.500005-.1.9-.1 1.8-.1 2.4a9.1 9.1 0 0 1 -2.3 5.7h-.1v.2 0-.2c.5-5-.7-16.000005-4.9-27.000005-5.6-14.5-17.5-32.1-42.6-33.1-27.8-1.2-44.3 9.2-46.5 29.3v.6c-.5 3.7-1.3 7.1-3.2 9.2-.6-12.1 1-25.9 8.7-35.9zm-14.5 39.8h2.2l1.7-.3v0a7.5 7.5 0 0 0 2-1l1.3-1.1v0l1-1.3v0l .8-1.5v0l .6-1.6v0l .5-1.6v0l .2-.7v0-.7 0-.6 0-.6 0-.6 0-1.1c2-19.2 17.4-28.7 44.4-27.5 16.3.7 28.8 8.7 37.1 23.8 7.2 13.1 8.7 27.000005 8.6 32.800005l.3 1.1v0l-.2-1v0q-1.4-6-3.1-11.1v0l-.8-2.500005v0l-.9-2.3v0l-.9-2.2h-.1l-.9-2v-.2l-.9-1.8-.2-.3-.9-1.7-.2-.4-.9-1.5-.3-.5-.8-1.3-.4-.5-.8-1.1-.5-.7-.7-.9-.7-.8-.6-.7-.9-2.3c-8.7-8.5-20.9-12.1-37.3-11.1-22.1 1.4-25.2 12.9-27.7 22.1-1.5 5.6-2.8 10.5-7.9 12.300005l-1.7.6-.7.2-.8.2-3 .4h-1.1a12.1 12.1 0 0 1 -3.3-.5v0l-1.3-.5h-.2l-1.4-.8c-3.4-2.400005-5.2-6.500005-6.1-10.200005a9.1 9.1 0 0 0 7.5 5.6zm5.9 14.000005v0a24.6 24.6 0 0 1 -4.1-.9h-.2l-1.6-.6-.4-.2-1.7-.8c-9.1-4.9-9.2-14.500005-8.2-20.600005.6 4.4 2.3 11.8 7.7 15.500005l.8.5h.2l.6.3h.3l.6.3h.3l.7.2h.2l.7.2h5.2l2.7-.5h.3l1.1-.3h.3l1.4-.5c6.1-2.2 7.6-7.800005 9.2-13.700005 2.5-9.1 5.2-19.4 25.9-20.7 33.6-2.1 45 15.9 51.4 43.800005-3.1-2.8-7.6-8.7-12.5-17.600005-5.9-10.8-17.4-16.2-34.1-16.2h-4.1c-14.5.7-18.2 11.4-20.7 18.4a38 38 0 0 1 -1.7 4.400005c-1.8 3.6-5.4 6.3-9.9 7.7a22.5 22.5 0 0 1 -4.2.9h-2.1a24.7 24.7 0 0 1 -4.1.4zm1.3 17.8a68.2 68.2 0 0 0  .5 9.3 11.8 11.8 0 0 1 -6-4.8c-1.6-2.7-1.9-6.1-.8-10.1 1.7-6.2 5.6-8.2 8.1-8.7a68.7 68.7 0 0 0 -1.8 14.3zm3.7 16q-.5-2-.8-4l-.3-2a66.7 66.7 0 0 1  .9-22.5c.2-1 .4-2 .7-3h .9a24.2 24.2 0 0 0 4.5-.9c5.1-1.6 9-4.7 11.1-8.7a39.8 39.8 0 0 0 1.8-4.600005c2.5-6.9 5.8-16.4 19-17.1 18.1-.9 30.3 4.2 36.3 15.1 5 9.100005 10.3 16.200005 14.1 19.100005l.9.6c.2 1.1.4 2.1.5 3.2a66.8 66.8 0 0 1 -.1 19.9l-.4 2.3a64.3 64.3 0 0 1 -2.2 8.4 57.6 57.6 0 0 1 -10.8 19.1 46.7 46.7 0 0 1 -14 11.2v0l-2 1a38.6 38.6 0 0 1 -32.7-.3l-2-1c-12.4-7-21.8-20-25.5-35.9zm60 39.2-.2 11.9v2.6c-.1 3.1-6.9 6.5-16.5 6.4a30.4 30.4 0 0 1 -11.8-2.4c-2.8-1.3-4.4-3-4.4-4.6v0-2.4l.2-12a40.6 40.6 0 0 0 16 3.6h.7a41 41 0 0 0 15.9-3.2zm-100.6-5.3c-8.1-2-10.9-11.2-13.3-19.7a72.2 72.2 0 0 0 -2.4-7.2 18.4 18.4 0 0 1 -1.5-7c0-1 .2-1.7.6-1.9a1.5 1.5 0 0 1 1.3-.2 4.2 4.2 0 0 1  1.6 2.1 29.5 29.5 0 0 1  1.4 3.8l.7 2.4c.8 2.9 1.4 4.9 2.8 5.4a2.3 2.3 0 0 0 2.1-.3c1.2-.7 1.2-2.8-2.2-11.3l-.3-.8-.2-.6v-.2c-1.7-4.3-1.4-5.9-1.1-6.5a.9.9 0 0 1  .6-.5.9.9 0 0 1  .8.1c1.6.9 3 5 3.5 7.4l.3 1.1c2.6 8.6 3.8 8.3 4.6 8.2a1.9 1.9 0 0 0 1.2-.9c.8-1.4.2-3.9-.9-7.2v-.2c-.3-.9-.5-1.7-.7-2.3a25.5 25.5 0 0 0 -.9-2.8c-1.3-3.7-2.2-6.9-.2-7.6a.8.8 0 0 1  .7.1c1.7 1 3.1 6 3.9 10.6 0 .1.2 1 .4 2.3s1.8 6.7 3.4 6.8a2.2 2.2 0 0 0 1.9-.8c.8-1 .7-2.6-.1-6l-.9-3.7c-1.5-5.9-1.8-9.4-.9-10.6a1 1 0 0 1  .9-.4v0c1.5 0 2.1 2.8 2.9 7.7l.2 1.4.6 3.6.3 2c1.4 8.8 2.3 12.8 5.2 12.7s2.7-2.9 3-5.4.7-4.8 2.2-4.9a1.2 1.2 0 0 1 1.1.5c1.6 1.9 1.2 8.5-.9 16.7a27.6 27.6 0 0 1 -2.8 7.2v0a13.9 13.9 0 0 1 -1.8 2.4c-2.1 2.2-4.7 3.4-8 4.3a21.1 21.1 0 0 1 -6.3.8zm83.6 99.9a134.8 134.8 0 0 1 -47-8.4v-47.5l-.7-.2c-9.9-2.8-20.5-9.5-25.8-16.3a24.9 24.9 0 0 1 -2.6-4.2l-.9-2v0l-.4-1.1v0l-.4-1-.2-.6v0l-.3-1-.2-.6v0l-.4-1.2v-.5 0l-.2-.7-.3-1.3v0l-.3-1.3v-.4 0l-.5-2.6v-.5 0-1.4 0-.6 0-1.3 0-.6c-.1-.9-.2-1.8-.3-2.5h1.2a24 24 0 0 0 6.2-.9 19.1 19.1 0 0 0  7.8-3.7v0 2.7l.2.7.2.8.2.7.4 1.5v.4l.4 1.2.2.6.3.8v.3l.2.6.3.8v.3l.2.5.4.9.2.4v.2l.2.4.6 1.1.2.4.4.6.3.4.3.5h.1l.6.8.4.4h.1l.7.7.4.4 1.2 1a35.6 35.6 0 0 0 10.7 5h1.7a10.3 10.3 0 0 1 7.9-3.7h18.7c0 2.5 1.9 4.7 5.6 6.4a32.4 32.4 0 0 0 12.6 2.5h.7c9.9 0 17.7-3.6 17.8-8.3v-.7h15.9a10.4 10.4 0 0 1 8.4 4.4l.4.5h.7c4.1-.9 9.9-2.7 14.4-6l .9-.7.3-.3.4-.4 1-1.1.2-.2.5-.7.8-1.2.2-.3v0l .7-1.2.6-1.2h.1l1-2.3v-.4l.2-.6.2-.6.2-.5v-.4l.2-.6.4-1.5v-.2l.2-.9v0l .4-1.7v-.4l.3-1.5v0a21.9 21.9 0 0 0 6.3 2.6 24 24 0 0 0  6.2.9l2.9-.3v.7 0 3.5c-.2 1-.3 2.2-.6 3.4v.5l-.2 1v .5l-.2 1.1v.5l-.3 1.2v.3a52.1 52.1 0 0 1 -1.8 5.7v.3l-.5 1.2-.2.4-.5 1.2-.2.3-.7 1.2-.7 1.2v0l-1 1.5-1.1 1.3-.4.4-.8.9-.5.5-1 .9-.4.4a55.9 55.9 0 0 1 -21.1 11.8v0l-1.8.5h-.3l-1.9.4h-.8v47.2a134.8 134.8 0 0 1 -46.2 7.7z" fill="#656565"/><path d="m117.1 256.71028v.9 1.4l2.2 1.4q.1-1.1.1-2.3z" fill="#656565"/><path d="m85.9 253.01028v-11.7a1.2 1.2 0 1 0 -2.3 0v11.7a4.6 4.6 0 0 0 -3.3 3.3h-8.3a1.2 1.2 0 1 0 0 2.3h8.3a4.6 4.6 0 1 0 5.6-5.6zm-1.2 6.8a2.3 2.3 0 1 1 2.3-2.3 2.3 2.3 0 0 1 -2.3 2.3z" fill="#656565"/><path d="m84.7 234.31028a1.2 1.2 0 0 0 1.2-1.2v-1.2a1.2 1.2 0 1 0 -2.3 0v1.3a1.2 1.2 0 0 0 1.1 1.1z" fill="#656565"/><path d="m84.7 280.61028a1.2 1.2 0 0 0 -1.2 1.2v1.2a1.2 1.2 0 1 0 2.3 0v-1.2a1.2 1.2 0 0 0 -1.1-1.2z" fill="#656565"/><path d="m110.2 256.31028h-1.2a1.2 1.2 0 1 0 0 2.3h1.2a1.2 1.2 0 0 0 0-2.3z" fill="#656565"/><path d="m60.4 256.31028h-1.2a1.2 1.2 0 0 0 0 2.3h1.2a1.2 1.2 0 1 0 0-2.3z" fill="#656565"/><path d="m101.9 238.71028-.8.8a1.2 1.2 0 0 0  .8 2 1.1 1.1 0 0 0  .8-.3l.8-.8a1.2 1.2 0 1 0 -1.6-1.6z" fill="#656565"/><path d="m66.7 273.91028-.8.8a1.2 1.2 0 0 0 1.6 1.6l.8-.8a1.2 1.2 0 1 0 -1.6-1.6z" fill="#656565"/><path d="m102.7 273.91028a1.2 1.2 0 1 0 -1.6 1.6l.8.8a1.1 1.1 0 0 0  .8.3 1.2 1.2 0 0 0  .8-2z" fill="#656565"/><path d="m67.5 238.71028a1.2 1.2 0 1 0 -1.6 1.6l.8.8a1.1 1.1 0 0 0  .8.3 1.2 1.2 0 0 0  .8-2z" fill="#656565"/></svg>